<?xml version="1.0" encoding="UTF-8"?>
<svg version="1.1" xmlns="http://www.w3.org/2000/svg" width="400" height="400">
<path d="M0 0 C132 0 264 0 400 0 C400 132 400 264 400 400 C268 400 136 400 0 400 C0 268 0 136 0 0 Z " fill="#FCFDFD" transform="translate(0,0)"/>
<path d="M0 0 C2.69248153 6.34451766 4.89453379 12.73305594 6.875 19.33203125 C8.14509872 23.47308229 9.49939049 27.58056298 10.875 31.6875 C11.12572266 32.43926514 11.37644531 33.19103027 11.63476562 33.96557617 C12.97556985 37.9765326 14.33594698 41.97988635 15.71875 45.9765625 C15.99605957 46.78649658 16.27336914 47.59643066 16.55908203 48.4309082 C17.09017149 49.98111096 17.62730138 51.52926176 18.17138672 53.07495117 C19.44973076 56.8237015 20.32788526 60.02634294 20 64 C19.06607422 64.11214844 19.06607422 64.11214844 18.11328125 64.2265625 C-6.68878095 67.75488934 -31.48799108 77.26962971 -54 88 C-54.66515625 88.31404785 -55.3303125 88.6280957 -56.015625 88.95166016 C-84.90414112 102.67797035 -111.27319296 120.60007858 -135 142 C-135.63325195 142.57008789 -136.26650391 143.14017578 -136.91894531 143.72753906 C-167.07081257 171.01505511 -190.66573434 203.77765656 -209 240 C-212.77771836 238.61594419 -215.98292253 236.87275187 -219.359375 234.69140625 C-220.89634033 233.70285645 -220.89634033 233.70285645 -222.46435547 232.69433594 C-223.54861816 231.99083008 -224.63288086 231.28732422 -225.75 230.5625 C-226.88272835 229.83197378 -228.0157058 229.10183367 -229.14892578 228.37207031 C-232.43613133 226.25346078 -235.71849891 224.12743578 -239 222 C-239.83305664 221.46036621 -240.66611328 220.92073242 -241.52441406 220.36474609 C-247.47388494 216.51072725 -247.47388494 216.51072725 -249.86791992 214.95458984 C-253.55379466 212.56348403 -257.25726387 210.20371263 -260.98046875 207.87109375 C-261.82689941 207.34032227 -262.67333008 206.80955078 -263.54541016 206.26269531 C-265.16415288 205.2496858 -266.78477429 204.23966889 -268.40771484 203.23339844 C-273.47240405 200.06481117 -278.27772756 196.65913884 -283 193 C-281.5691155 188.09411029 -279.41391572 183.86714619 -276.8125 179.5 C-276.38469238 178.77804443 -275.95688477 178.05608887 -275.51611328 177.31225586 C-271.6704157 170.92721334 -267.56114963 164.72836591 -263.375 158.5625 C-262.7663208 157.66402344 -262.1576416 156.76554688 -261.53051758 155.83984375 C-257.2870638 149.66340653 -252.74228011 143.79977632 -248 138 C-247.20851562 137.01128906 -246.41703125 136.02257812 -245.6015625 135.00390625 C-241.02135701 129.34653781 -236.26244369 123.90531519 -231.33203125 118.55078125 C-229.36500972 116.39924849 -227.45446871 114.21708027 -225.5625 112 C-218.65034124 104.06079878 -211.01454637 96.81028811 -203 90 C-201.98471636 89.11047035 -200.97048392 88.21974014 -199.95703125 87.328125 C-191.30110986 79.75310039 -182.29661635 72.76902519 -173 66 C-172.15308594 65.37738281 -171.30617188 64.75476563 -170.43359375 64.11328125 C-151.16938593 50.27655459 -130.545377 38.8271487 -109 29 C-107.8543457 28.4740625 -107.8543457 28.4740625 -106.68554688 27.9375 C-75.25545061 13.6586985 -34.9246757 -0.62295966 0 0 Z " fill="#02C1A6" transform="translate(346,123)"/>
<path d="M0 0 C22.11 0 44.22 0 67 0 C67.433125 5.919375 67.86625 11.83875 68.3125 17.9375 C69.40337247 32.65974064 70.6075337 47.36521053 71.99731445 62.06225586 C73.19246698 74.7410862 74.14148996 87.26590339 74 100 C67.87176221 102.59557055 61.72775833 105.12919251 55.51171875 107.5078125 C34.58647794 115.51544832 14.23100727 124.43913645 -5 136 C-5.74169434 136.44424316 -6.48338867 136.88848633 -7.24755859 137.34619141 C-25.91892383 148.61706108 -46.40421487 161.96138687 -60.375 178.98828125 C-62 180 -62 180 -64.61328125 179.90234375 C-68.99569176 178.73471188 -73.03424627 177.05663864 -77.1875 175.25 C-78.04045654 174.88511475 -78.89341309 174.52022949 -79.7722168 174.14428711 C-83.97804753 172.33755419 -88.16034093 170.48980511 -92.3125 168.5625 C-97.65627507 166.08975936 -103.10693314 163.89867711 -108.5625 161.6875 C-118.47398461 157.67013061 -128.25916852 153.41343846 -138 149 C-136.47992787 141.45564201 -134.26508209 134.24827988 -131.875 126.9375 C-131.48119141 125.72336426 -131.08738281 124.50922852 -130.68164062 123.25830078 C-127.98186552 114.95487246 -125.2513737 106.6614678 -122.5 98.375 C-122.16210449 97.35656006 -121.82420898 96.33812012 -121.47607422 95.28881836 C-121.00838623 93.88901733 -121.00838623 93.88901733 -120.53125 92.4609375 C-120.25861328 91.64415527 -119.98597656 90.82737305 -119.70507812 89.98583984 C-119 88 -119 88 -118 86 C-111.64395594 86.29910796 -105.81165383 87.49226921 -99.69555664 89.21264648 C-93.30525014 90.98007984 -86.85195772 92.40055198 -80.375 93.8125 C-70.7192397 95.92383358 -61.10130227 98.15348904 -51.5 100.5 C-37.70888972 103.86797765 -23.87090079 106.97816713 -10 110 C-8.14872148 92.33123459 -6.53283651 74.67480898 -5.28125 56.95214844 C-4.76703186 49.72631223 -4.23640941 42.50177052 -3.69335938 35.27804565 C-3.56649829 33.57841548 -3.44143715 31.87864979 -3.31835938 30.17874146 C-3.14378968 27.76854668 -2.96309184 25.35887447 -2.78125 22.94921875 C-2.73230591 22.25414215 -2.68336182 21.55906555 -2.63293457 20.84292603 C-2.09021961 13.81121451 -1.00532113 7.03724789 0 0 Z " fill="#02C1A6" transform="translate(162,37)"/>
<path d="M0 0 C1.69071939 2.49335332 3.16966663 4.93530688 4.625 7.5625 C5.52143818 9.13451239 6.41858698 10.70611973 7.31640625 12.27734375 C7.7664502 13.07253418 8.21649414 13.86772461 8.68017578 14.68701172 C10.58864317 18.03159553 12.57053153 21.32969364 14.5625 24.625 C15.31008498 25.86707368 16.05748131 27.10926091 16.8046875 28.3515625 C17.17045898 28.9590332 17.53623047 29.56650391 17.91308594 30.19238281 C18.96813327 31.94700331 20.01986776 33.70355838 21.0703125 35.4609375 C25.07373798 42.15537331 29.10802138 48.83027941 33.16699219 55.49121094 C34.38376419 57.48848027 35.59927052 59.48652126 36.81347656 61.48535156 C39.49879075 65.90502303 42.19166268 70.31831312 44.93359375 74.703125 C45.36220703 75.39599609 45.79082031 76.08886719 46.23242188 76.80273438 C47.01321278 78.06440137 47.80181986 79.32127804 48.59960938 80.57226562 C49.62109375 82.234375 49.62109375 82.234375 51 85 C49.78033633 88.65899101 48.68620107 89.19744278 45.5625 91.375 C44.56476563 92.08011719 43.56703125 92.78523438 42.5390625 93.51171875 C41.69649902 94.10218994 41.69649902 94.10218994 40.83691406 94.70458984 C37.34676541 97.16587756 33.89629765 99.6824547 30.4375 102.1875 C28.89214638 103.3036891 27.34656948 104.41956912 25.80078125 105.53515625 C25.01654785 106.10121582 24.23231445 106.66727539 23.42431641 107.25048828 C20.94323287 109.04096609 18.46185894 110.83104095 15.98046875 112.62109375 C15.16715088 113.20802002 14.35383301 113.79494629 13.51586914 114.3996582 C11.95669424 115.52481791 10.39729722 116.6496699 8.83764648 117.77416992 C8.13067627 118.28439697 7.42370605 118.79462402 6.6953125 119.3203125 C6.07672363 119.76648926 5.45813477 120.21266602 4.82080078 120.67236328 C2.86685094 122.09708563 0.93154008 123.54508063 -1 125 C-9.31297805 121.54404283 -15.11332555 111.71098422 -20.6328125 104.90234375 C-27.14760988 96.91472914 -33.88460893 89.10982211 -40.625 81.3125 C-41.16882324 80.68069824 -41.71264648 80.04889648 -42.27294922 79.39794922 C-44.74451874 76.53994052 -47.23415372 73.72209644 -49.859375 71.00390625 C-50.68953125 70.13636719 -51.5196875 69.26882813 -52.375 68.375 C-53.10460937 67.64023437 -53.83421875 66.90546875 -54.5859375 66.1484375 C-56 64 -56 64 -55.859375 61.484375 C-54.42381311 57.33429609 -52.24615659 53.75923336 -50 50 C-49.51660156 49.16339844 -49.03320312 48.32679688 -48.53515625 47.46484375 C-42.39042332 37.26368566 -34.46167345 28.33844519 -26 20 C-25.2678125 19.23300781 -24.535625 18.46601563 -23.78125 17.67578125 C-19.13978387 12.86741309 -14.33003456 8.47549811 -9.0625 4.375 C-8.50691406 3.93712158 -7.95132813 3.49924316 -7.37890625 3.0480957 C-3.37125897 0 -3.37125897 0 0 0 Z " fill="#03C1A6" transform="translate(270,238)"/>
<path d="M0 0 C22.11 0 44.22 0 67 0 C69 30 69 30 69 39 C68.67 39 68.34 39 68 39 C67.34 34.05 66.68 29.1 66 24 C65.67 24 65.34 24 65 24 C64.83191581 21.89594609 64.66558052 19.79175242 64.5 17.6875 C64.4071875 16.51574219 64.314375 15.34398437 64.21875 14.13671875 C63.93571652 10.07822075 64 6.07511133 64 2 C43.21 1.67 22.42 1.34 1 1 C1 5.62 1 10.24 1 15 C0.67 15.66 0.34 16.32 0 17 C-0.22239689 18.95643473 -0.39215854 20.91897725 -0.53515625 22.8828125 C-0.62216797 24.04941406 -0.70917969 25.21601562 -0.79882812 26.41796875 C-0.88583984 27.64128906 -0.97285156 28.86460938 -1.0625 30.125 C-1.15337891 31.35605469 -1.24425781 32.58710937 -1.33789062 33.85546875 C-1.56235003 36.90339115 -1.78288542 39.95154703 -2 43 C-2.33 43 -2.66 43 -3 43 C-3.46999692 28.2386153 -1.86046172 14.88369375 0 0 Z " fill="#24AB94" transform="translate(162,37)"/>
<path d="M0 0 C0.33 0 0.66 0 1 0 C0.01171731 19.89569109 -1.42689806 39.76264321 -3.30865479 59.59387207 C-3.43588456 60.94441514 -3.56004693 62.29525081 -3.68109131 63.6463623 C-3.85093685 65.528132 -4.03450835 67.40864773 -4.21875 69.2890625 C-4.3724707 70.90868896 -4.3724707 70.90868896 -4.52929688 72.56103516 C-4.76229492 73.76832275 -4.76229492 73.76832275 -5 75 C-7.6666419 76.33332095 -9.16680303 75.67102033 -12 75 C-12 74.67 -12 74.34 -12 74 C-10.02 74 -8.04 74 -6 74 C-6.01047363 73.03698975 -6.02094727 72.07397949 -6.03173828 71.08178711 C-6.06814588 67.48302987 -6.09097545 63.88428868 -6.10986328 60.28540039 C-6.11987381 58.73263809 -6.13348634 57.17989442 -6.15087891 55.62719727 C-6.17534652 53.38553245 -6.18653268 51.14411851 -6.1953125 48.90234375 C-6.20563507 48.21663803 -6.21595764 47.53093231 -6.22659302 46.82444763 C-6.22765056 42.20289906 -5.31411043 38.40466344 -4 34 C-3.66725992 31.46947245 -3.39798102 28.93000869 -3.18359375 26.38671875 C-3.0915139 25.34328056 -3.0915139 25.34328056 -2.99757385 24.27876282 C-2.80442073 22.08217669 -2.62024069 19.88497489 -2.4375 17.6875 C-2.25019378 15.4722854 -2.06087689 13.2573034 -1.86671448 11.04267883 C-1.69211936 9.04668458 -1.52446986 7.0500864 -1.35717773 5.0534668 C-1 2 -1 2 0 0 Z " fill="#C5F8F4" transform="translate(158,72)"/>
<path d="M0 0 C0.66 0 1.32 0 2 0 C0.38242866 4.45046083 -1.83767642 8.40958459 -4.1875 12.5 C-8.23334882 19.61133518 -12.15430192 26.77849622 -16 34 C-20.08105062 32.45657029 -23.41572782 30.50065501 -27 28 C-25.3125 26.875 -25.3125 26.875 -23 26 C-20.4375 26.8125 -20.4375 26.8125 -18 28 C-17.01 28.33 -16.02 28.66 -15 29 C-14.01 25.7 -13.02 22.4 -12 19 C-11.34 19 -10.68 19 -10 19 C-9.67 17.35 -9.34 15.7 -9 14 C-8.34 14 -7.68 14 -7 14 C-6.67 12.35 -6.34 10.7 -6 9 C-5.34 9 -4.68 9 -4 9 C-4.33 8.01 -4.66 7.02 -5 6 C-3.625 4.5 -3.625 4.5 -2 3 C-1.34 3 -0.68 3 0 3 C0 2.01 0 1.02 0 0 Z " fill="#26BAA1" transform="translate(153,329)"/>
<path d="M0 0 C2.7211517 6.41207555 4.93411954 12.86660107 6.9140625 19.54296875 C7.68657715 22.00223302 8.49500995 24.39143682 9.3984375 26.80078125 C9.63312744 27.42887695 9.86781738 28.05697266 10.10961914 28.70410156 C10.77905843 30.47408136 11.46146131 32.23914199 12.14453125 34.00390625 C12.98530281 36.94852628 13.11325269 38.20662362 12 41 C11.67 39.68 11.34 38.36 11 37 C10.34 37 9.68 37 9 37 C8.80664062 36.19175781 8.61328125 35.38351563 8.4140625 34.55078125 C8.15367187 33.48214844 7.89328125 32.41351563 7.625 31.3125 C7.24214844 29.72888672 7.24214844 29.72888672 6.8515625 28.11328125 C6.08094511 25.29593234 5.14501457 22.68331675 4 20 C3.01 20 2.02 20 1 20 C1.33 19.67 1.66 19.34 2 19 C1.93487013 17.45464593 1.79682667 15.91215214 1.625 14.375 C1.53476562 13.53710938 1.44453125 12.69921875 1.3515625 11.8359375 C0.94441612 8.55162336 0.46802751 5.27619257 0 2 C-5.94 2.33 -11.88 2.66 -18 3 C-12.57208334 -0.61861111 -6.31704728 -0.11082539 0 0 Z " fill="#2DBEA5" transform="translate(346,123)"/>
<path d="M0 0 C0 0.66 0 1.32 0 2 C-4.87962317 4.53325118 -9.74011053 6.96190129 -14.875 8.9375 C-19.94321122 10.89238147 -24.71608142 13.32125888 -29.53125 15.828125 C-32 17 -32 17 -34 17 C-34 17.66 -34 18.32 -34 19 C-34.61875 19.28875 -35.2375 19.5775 -35.875 19.875 C-38.13325765 20.93720042 -38.13325765 20.93720042 -40 23 C-41.9812585 23.72045764 -43.98504093 24.38001259 -46 25 C-47.11375 25.37125 -48.2275 25.7425 -49.375 26.125 C-50.24125 26.41375 -51.1075 26.7025 -52 27 C-48.68474694 23.46198543 -44.79758631 21.3410713 -40.625 18.9375 C-39.79516602 18.45796875 -38.96533203 17.9784375 -38.11035156 17.484375 C-28.67007589 12.11810117 -18.8928849 7.46607927 -9 3 C-8.30970703 2.68804687 -7.61941406 2.37609375 -6.90820312 2.0546875 C-2.25635222 0 -2.25635222 0 0 0 Z " fill="#23BAA2" transform="translate(246,149)"/>
<path d="M0 0 C0.33 0.99 0.66 1.98 1 3 C2.051875 3.185625 2.051875 3.185625 3.125 3.375 C6.17656387 4.03838345 9.05340938 4.97211955 12 6 C12 6.66 12 7.32 12 8 C15.63 8.66 19.26 9.32 23 10 C23 10.66 23 11.32 23 12 C27.455 12.99 27.455 12.99 32 14 C32 14.66 32 15.32 32 16 C33.98 15.67 35.96 15.34 38 15 C37.34 15.99 36.68 16.98 36 18 C30.46591665 17.39401342 25.86366329 15.44742136 20.8125 13.25 C19.97187012 12.89019043 19.13124023 12.53038086 18.26513672 12.15966797 C12.88610986 9.84785735 7.53403319 7.48002197 2.2265625 5.0078125 C-0.15528282 3.92971409 -2.56631961 2.95455309 -5 2 C-5 1.67 -5 1.34 -5 1 C-3.35 0.67 -1.7 0.34 0 0 Z " fill="#2EBCA5" transform="translate(64,199)"/>
<path d="M0 0 C0.99 1.32 1.98 2.64 3 4 C2.41734375 4.66902344 1.8346875 5.33804687 1.234375 6.02734375 C-4.5914337 12.85160079 -9.88982771 19.90486024 -14.97558594 27.29858398 C-15.6972998 28.34381226 -15.6972998 28.34381226 -16.43359375 29.41015625 C-16.85697021 30.03027588 -17.28034668 30.65039551 -17.71655273 31.28930664 C-19.0197715 33.02635322 -20.42918274 34.50418805 -22 36 C-21.67 33.69 -21.34 31.38 -21 29 C-20.34 29 -19.68 29 -19 29 C-18.67 27.35 -18.34 25.7 -18 24 C-17.01 23.67 -16.02 23.34 -15 23 C-14.5359375 21.7625 -14.5359375 21.7625 -14.0625 20.5 C-13.711875 19.675 -13.36125 18.85 -13 18 C-11.66666667 17.66666667 -10.33333333 17.33333333 -9 17 C-7.80161791 14.67145537 -7.80161791 14.67145537 -7 12 C-6.34786461 10.65949948 -5.68620031 9.32338632 -5 8 C-4.01 8 -3.02 8 -2 8 C-1.34 5.36 -0.68 2.72 0 0 Z " fill="#23B9A1" transform="translate(178,292)"/>
<path d="M0 0 C2 1 2 1 2.8515625 2.890625 C5.41509434 10.71069182 5.41509434 10.71069182 5 15 C0.9472484 15.98248524 -2.83861737 16.08159574 -7 16 C-6.34 15.67 -5.68 15.34 -5 15 C-4.34444881 12.47266765 -4.34444881 12.47266765 -4 10 C-2.02 10 -0.04 10 2 10 C1.67 8.35 1.34 6.7 1 5 C-0.32 5.33 -1.64 5.66 -3 6 C-2.67 5.01 -2.34 4.02 -2 3 C-1.34 3.33 -0.68 3.66 0 4 C0 2.68 0 1.36 0 0 Z " fill="#1EBEA4" transform="translate(361,172)"/>
<path d="M0 0 C0.33 0.66 0.66 1.32 1 2 C3.35599235 2.46751788 3.35599235 2.46751788 6.0625 2.625 C7.44115234 2.73714844 7.44115234 2.73714844 8.84765625 2.8515625 C9.55792969 2.90054688 10.26820312 2.94953125 11 3 C11 3.99 11 4.98 11 6 C11.57363281 6.12246094 12.14726563 6.24492187 12.73828125 6.37109375 C15.08694432 7.02417623 17.01748415 7.95970506 19.1875 9.0625 C24.00695869 11.28009146 27.74404781 11.33371125 33 11 C32.34 11.66 31.68 12.32 31 13 C32.485 13.99 32.485 13.99 34 15 C34 15.66 34 16.32 34 17 C26.79983337 14.73730456 19.96300354 11.92334466 13.0625 8.875 C12.02287109 8.41996094 10.98324219 7.96492187 9.91210938 7.49609375 C2.43105159 4.21552579 2.43105159 4.21552579 0 3 C0 2.01 0 1.02 0 0 Z " fill="#32BDA5" transform="translate(24,183)"/>
<path d="M0 0 C0.66 0.33 1.32 0.66 2 1 C0 4 0 4 -3 5 C-3.515625 5.515625 -4.03125 6.03125 -4.5625 6.5625 C-5.036875 7.036875 -5.51125 7.51125 -6 8 C-6.66 8 -7.32 8 -8 8 C-8.0928125 8.928125 -8.0928125 8.928125 -8.1875 9.875 C-9 12 -9 12 -11.5 13.125 C-12.325 13.41375 -13.15 13.7025 -14 14 C-14.33 14.66 -14.66 15.32 -15 16 C-15.66 16 -16.32 16 -17 16 C-17.33 16.99 -17.66 17.98 -18 19 C-18.66 19 -19.32 19 -20 19 C-20 19.99 -20 20.98 -20 22 C-22.31 22.33 -24.62 22.66 -27 23 C-23.23355106 19.13424732 -19.29352727 15.56348716 -15.1875 12.0625 C-14.26590088 11.27407715 -14.26590088 11.27407715 -13.32568359 10.46972656 C-9.00670471 6.79830999 -4.60196264 3.3134131 0 0 Z " fill="#1BBEA1" transform="translate(170,191)"/>
<path d="M0 0 C0.33 0 0.66 0 1 0 C1 7.92 1 15.84 1 24 C-4.14542602 26.57271301 -9.99267548 24.65437098 -15.1875 23.0625 C-16.37730469 22.70285156 -17.56710938 22.34320313 -18.79296875 21.97265625 C-20.38044922 21.49119141 -20.38044922 21.49119141 -22 21 C-23.33038449 20.6550855 -24.66229678 20.31533947 -26 20 C-26 19.34 -26 18.68 -26 18 C-24.77023438 18.27714844 -23.54046875 18.55429688 -22.2734375 18.83984375 C-20.64064416 19.20581467 -19.00783059 19.57169532 -17.375 19.9375 C-16.56675781 20.11990234 -15.75851563 20.30230469 -14.92578125 20.49023438 C-14.13300781 20.66748047 -13.34023437 20.84472656 -12.5234375 21.02734375 C-11.80075684 21.18968506 -11.07807617 21.35202637 -10.33349609 21.51928711 C-7.57018132 22.08854499 -4.78295328 22.53617445 -2 23 C-1.34 15.41 -0.68 7.82 0 0 Z " fill="#2BBDA4" transform="translate(154,124)"/>
<path d="M0 0 C0.33 1.32 0.66 2.64 1 4 C0.01 4.33 -0.98 4.66 -2 5 C-3.21869929 7.50447516 -3.21869929 7.50447516 -4 10 C-4.99 9.67 -5.98 9.34 -7 9 C-7.061875 9.598125 -7.12375 10.19625 -7.1875 10.8125 C-8.32077754 13.86363184 -10.24599601 14.3879001 -13 16 C-14.19232613 18.05003955 -14.19232613 18.05003955 -15 20 C-15.66 20.33 -16.32 20.66 -17 21 C-18.13350534 23.01669827 -18.13350534 23.01669827 -19 25 C-20.32 24.67 -21.64 24.34 -23 24 C-6.74285575 6.54897172 -6.74285575 6.54897172 0 0 Z " fill="#2FBFA9" transform="translate(135,220)"/>
<path d="M0 0 C0.33 0 0.66 0 1 0 C1.2888044 4.10739767 1.57346055 8.21506106 1.85449219 12.32299805 C1.95039383 13.71662911 2.04737341 15.11018648 2.14550781 16.50366211 C2.67343214 24.01042289 3.13340572 31.47091495 3 39 C2.67 39 2.34 39 2 39 C1.34 34.05 0.68 29.1 0 24 C-0.33 24 -0.66 24 -1 24 C-1.16808419 21.89594609 -1.33441948 19.79175242 -1.5 17.6875 C-1.5928125 16.51574219 -1.685625 15.34398437 -1.78125 14.13671875 C-2.14698676 8.89231479 -1.32367169 5.0464983 0 0 Z " fill="#28BEA4" transform="translate(228,37)"/>
<path d="M0 0 C1.40318642 4.20955927 -0.11775477 6.09608396 -2 10 C-2.99 11.485 -2.99 11.485 -4 13 C-3.34 13.33 -2.68 13.66 -2 14 C-2.66 14.66 -3.32 15.32 -4 16 C-4.33 16.99 -4.66 17.98 -5 19 C-4.34 19 -3.68 19 -3 19 C-3 19.66 -3 20.32 -3 21 C-1.68 21.33 -0.36 21.66 1 22 C1 22.66 1 23.32 1 24 C-2.99500618 22.6302836 -5.80009492 20.74277578 -9 18 C-7.65072455 13.46152802 -5.80840652 9.68067754 -3.375 5.625 C-2.74335937 4.56539063 -2.11171875 3.50578125 -1.4609375 2.4140625 C-0.73777344 1.21910156 -0.73777344 1.21910156 0 0 Z " fill="#23BCA2" transform="translate(72,298)"/>
<path d="M0 0 C0.33 0 0.66 0 1 0 C1.02693575 2.12493141 1.04636628 4.24995912 1.0625 6.375 C1.07410156 7.55835938 1.08570313 8.74171875 1.09765625 9.9609375 C1 13 1 13 0 15 C-0.22239689 16.95643473 -0.39215854 18.91897725 -0.53515625 20.8828125 C-0.62216797 22.04941406 -0.70917969 23.21601562 -0.79882812 24.41796875 C-0.88583984 25.64128906 -0.97285156 26.86460938 -1.0625 28.125 C-1.19881836 29.97158203 -1.19881836 29.97158203 -1.33789062 31.85546875 C-1.56235003 34.90339115 -1.78288542 37.95154703 -2 41 C-2.33 41 -2.66 41 -3 41 C-3.19947263 31.10394126 -3.1239642 21.350579 -2.0625 11.5 C-1.97564941 10.69393311 -1.88879883 9.88786621 -1.79931641 9.05737305 C-1.4327827 5.89915331 -1.00817044 3.02451131 0 0 Z " fill="#36BDA8" transform="translate(162,39)"/>
<path d="M0 0 C2.80563987 2.80563987 2.41631396 5.60981812 2.5625 9.375 C2.69630511 14.21137875 2.69630511 14.21137875 3.52294922 18.95458984 C4.0471724 21.2022571 4.02672536 23.02871666 3.87890625 25.328125 C3.83056641 26.12734375 3.78222656 26.9265625 3.73242188 27.75 C3.67634766 28.575 3.62027344 29.4 3.5625 30.25 C3.51029297 31.09046875 3.45808594 31.9309375 3.40429688 32.796875 C3.27504311 34.8649352 3.13825726 36.9325222 3 39 C2.67 39 2.34 39 2 39 C1.65997818 34.5629865 1.32922224 30.12532684 1 25.6875 C0.90460938 24.44419922 0.80921875 23.20089844 0.7109375 21.91992188 C0.17271974 14.59631586 -0.13660061 7.34323162 0 0 Z " fill="#D5FCF9" transform="translate(233,85)"/>
<path d="M0 0 C0.66 0.33 1.32 0.66 2 1 C-0.33333333 3.33333333 -2.66666667 5.66666667 -5 8 C-5.33 9.32 -5.66 10.64 -6 12 C-9.63 12.33 -13.26 12.66 -17 13 C-13.50164156 9.29394681 -9.99149936 6.47800508 -5.6875 3.6875 C-4.08455078 2.64142578 -4.08455078 2.64142578 -2.44921875 1.57421875 C-1.64097656 1.05472656 -0.83273438 0.53523437 0 0 Z " fill="#E5FCFA" transform="translate(147,178)"/>
<path d="M0 0 C1.34132478 4.02397435 0.02835109 6.66934109 -1.30859375 10.51171875 C-1.55416519 11.23994339 -1.79973663 11.96816803 -2.05274963 12.71846008 C-2.83926842 15.04442279 -3.63819864 17.36590269 -4.4375 19.6875 C-4.97282787 21.26339266 -5.50734327 22.83956156 -6.04101562 24.41601562 C-7.35126977 28.28061277 -8.67267103 32.14123572 -10 36 C-11.28435567 32.05956185 -10.35818565 29.68565514 -8.953125 25.828125 C-7.80080799 22.40895485 -6.93989652 18.93412603 -6.0625 15.4375 C-4.64182199 9.87507893 -2.85285511 4.99249645 0 0 Z " fill="#D5FCFA" transform="translate(39,134)"/>
<path d="M0 0 C1 2 1 2 0.3125 5 C-1 8 -1 8 -3.125 9.375 C-3.74375 9.58125 -4.3625 9.7875 -5 10 C-5 10.66 -5 11.32 -5 12 C-5.66 12 -6.32 12 -7 12 C-7.28875 12.721875 -7.5775 13.44375 -7.875 14.1875 C-8.91666667 16.79166667 -9.95833333 19.39583333 -11 22 C-11.99 22 -12.98 22 -14 22 C-12.35453838 16.99464369 -9.43542153 13.0184875 -6.4375 8.75 C-5.93025391 8.0178125 -5.42300781 7.285625 -4.90039062 6.53125 C-1.17766907 1.17766907 -1.17766907 1.17766907 0 0 Z " fill="#27BDA5" transform="translate(91,270)"/>
<path d="M0 0 C6.87800037 0.61372926 13.3664323 1.89896752 20.0625 3.5625 C21.02349609 3.79646484 21.98449219 4.03042969 22.97460938 4.27148438 C25.31767482 4.84267943 27.65936918 5.41892423 30 6 C30 6.33 30 6.66 30 7 C27.36 7 24.72 7 22 7 C22 6.34 22 5.68 22 5 C21.00419922 5.01740234 21.00419922 5.01740234 19.98828125 5.03515625 C13.12436627 5.10529845 7.46001795 4.49591603 1 2 C0.67 1.34 0.34 0.68 0 0 Z " fill="#1FBCA0" transform="translate(90,134)"/>
<path d="M0 0 C6.01793492 0.62686822 12.57859838 1.57859838 17 6 C11.63355047 5.15266586 6.32373135 4.07913473 1 3 C0.01 6.3 -0.98 9.6 -2 13 C-3.03103689 8.87585243 -2.94701684 8.0158858 -1.5625 4.25 C-1.27503906 3.45078125 -0.98757812 2.6515625 -0.69140625 1.828125 C-0.46324219 1.22484375 -0.23507813 0.6215625 0 0 Z " fill="#DCFDFC" transform="translate(43,120)"/>
<path d="M0 0 C0 0.66 0 1.32 0 2 C-3.67410785 3.17571451 -7.16929183 3.07366746 -11 3 C-11 3.66 -11 4.32 -11 5 C-19.91 6.485 -19.91 6.485 -29 8 C-28 6 -28 6 -25.74682617 5.22216797 C-24.77205322 4.98127441 -23.79728027 4.74038086 -22.79296875 4.4921875 C-21.73142578 4.22792969 -20.66988281 3.96367187 -19.57617188 3.69140625 C-18.45791016 3.42199219 -17.33964844 3.15257812 -16.1875 2.875 C-15.08083984 2.59785156 -13.97417969 2.32070312 -12.83398438 2.03515625 C-4.54799107 0 -4.54799107 0 0 0 Z " fill="#2DBFA6" transform="translate(323,126)"/>
<path d="M0 0 C0.99 0.33 1.98 0.66 3 1 C1.06327014 3.10488005 -0.87435141 5.20892696 -2.8125 7.3125 C-3.35970703 7.90740234 -3.90691406 8.50230469 -4.47070312 9.11523438 C-5.00244141 9.69208984 -5.53417969 10.26894531 -6.08203125 10.86328125 C-6.81256714 11.65665894 -6.81256714 11.65665894 -7.55786133 12.46606445 C-9.00872793 14.0092835 -10.49453768 15.51015856 -12 17 C-12 14.69 -12 12.38 -12 10 C-10.68 10.33 -9.36 10.66 -8 11 C-7.73445313 10.41734375 -7.46890625 9.8346875 -7.1953125 9.234375 C-5.96697004 6.93825772 -4.59685061 5.19643982 -2.875 3.25 C-2.33617188 2.63640625 -1.79734375 2.0228125 -1.2421875 1.390625 C-0.62730469 0.70226562 -0.62730469 0.70226562 0 0 Z " fill="#D9FBF9" transform="translate(120,232)"/>
<path d="M0 0 C0.66 0.33 1.32 0.66 2 1 C1.67 2.32 1.34 3.64 1 5 C0.01 5 -0.98 5 -2 5 C-3.73223664 6.94348501 -5.39881603 8.94720004 -7 11 C-7.66 11.66 -8.32 12.32 -9 13 C-9.99 13 -10.98 13 -12 13 C-13.33981486 13.3062434 -14.67511887 13.63451555 -16 14 C-12.56846086 10.46808678 -9.02624938 7.2862495 -5.1875 4.1875 C-4.21167969 3.39730469 -3.23585937 2.60710937 -2.23046875 1.79296875 C-1.49441406 1.20128906 -0.75835937 0.60960937 0 0 Z " fill="#DBFBF9" transform="translate(231,247)"/>
<path d="M0 0 C0.99 0 1.98 0 3 0 C4.22680664 1.48120117 4.22680664 1.48120117 5.41015625 3.54296875 C5.84263672 4.28740234 6.27511719 5.03183594 6.72070312 5.79882812 C7.16349609 6.58708984 7.60628906 7.37535156 8.0625 8.1875 C8.73249023 9.34088867 8.73249023 9.34088867 9.41601562 10.51757812 C11.56475913 14.25941099 13.55259447 17.91946126 15 22 C14.34 22 13.68 22 13 22 C12.67 21.01 12.34 20.02 12 19 C11.34 18.67 10.68 18.34 10 18 C8.9296875 16.22265625 8.9296875 16.22265625 7.875 14.0625 C7.52179688 13.35222656 7.16859375 12.64195312 6.8046875 11.91015625 C6 10 6 10 6 8 C5.34 8 4.68 8 4 8 C4 7.01 4 6.02 4 5 C3.34 5 2.68 5 2 5 C1.67 4.01 1.34 3.02 1 2 C0.01 2 -0.98 2 -2 2 C-1.34 1.34 -0.68 0.68 0 0 Z " fill="#2DBDA4" transform="translate(267,238)"/>
<path d="M0 0 C0 0.66 0 1.32 0 2 C-0.85464844 2.40992188 -1.70929688 2.81984375 -2.58984375 3.2421875 C-3.69457031 3.78101563 -4.79929688 4.31984375 -5.9375 4.875 C-7.03964844 5.40867188 -8.14179688 5.94234375 -9.27734375 6.4921875 C-12.09404511 7.71659845 -12.09404511 7.71659845 -13 10 C-15.28515625 10.4140625 -15.28515625 10.4140625 -18.0625 10.625 C-18.98160156 10.69976562 -19.90070313 10.77453125 -20.84765625 10.8515625 C-21.91306641 10.92503906 -21.91306641 10.92503906 -23 11 C-19.2050411 7.78341719 -14.85015351 5.88864085 -10.375 3.8125 C-9.59898437 3.44447266 -8.82296875 3.07644531 -8.0234375 2.69726562 C-2.2585952 0 -2.2585952 0 0 0 Z " fill="#CAF7F3" transform="translate(196,153)"/>
<path d="M0 0 C1.134375 0.020625 2.26875 0.04125 3.4375 0.0625 C1.06713115 2.43286885 -0.35434427 2.696042 -3.578125 3.5 C-4.58230469 3.75523437 -5.58648437 4.01046875 -6.62109375 4.2734375 C-7.67425781 4.53382813 -8.72742188 4.79421875 -9.8125 5.0625 C-18.77223325 7.27099451 -18.77223325 7.27099451 -27.5625 10.0625 C-27.5625 9.4025 -27.5625 8.7425 -27.5625 8.0625 C-26.14853098 7.55492138 -24.73118271 7.05675075 -23.3125 6.5625 C-22.52359375 6.2840625 -21.7346875 6.005625 -20.921875 5.71875 C-18.5625 5.0625 -18.5625 5.0625 -14.5625 5.0625 C-14.5625 4.4025 -14.5625 3.7425 -14.5625 3.0625 C-13.85222656 2.92972656 -13.14195312 2.79695312 -12.41015625 2.66015625 C-11.49105469 2.48355469 -10.57195312 2.30695313 -9.625 2.125 C-8.70847656 1.95097656 -7.79195313 1.77695313 -6.84765625 1.59765625 C-0.02761628 0.0004845 -0.02761628 0.0004845 0 0 Z " fill="#30B9A3" transform="translate(350.5625,187.9375)"/>
<path d="M0 0 C0.103125 0.639375 0.20625 1.27875 0.3125 1.9375 C0.539375 2.618125 0.76625 3.29875 1 4 C1.99 4.33 2.98 4.66 4 5 C4 5.66 4 6.32 4 7 C4.99 7 5.98 7 7 7 C8.640625 9.1171875 8.640625 9.1171875 10.25 11.875 C10.79140625 12.77992188 11.3328125 13.68484375 11.890625 14.6171875 C12.25671875 15.40351563 12.6228125 16.18984375 13 17 C12.67 17.66 12.34 18.32 12 19 C6.96567535 13.5488903 2.15057415 8.15891648 -2 2 C-1.34 2 -0.68 2 0 2 C0 1.34 0 0.68 0 0 Z " fill="#27B9A2" transform="translate(253,342)"/>
<path d="M0 0 C0.66 0.33 1.32 0.66 2 1 C1.67 1.66 1.34 2.32 1 3 C-1.5625 3.625 -1.5625 3.625 -4 4 C-4 4.66 -4 5.32 -4 6 C-4.61875 6.28875 -5.2375 6.5775 -5.875 6.875 C-8.13325765 7.93720042 -8.13325765 7.93720042 -10 10 C-11.9812585 10.72045764 -13.98504093 11.38001259 -16 12 C-17.11375 12.37125 -18.2275 12.7425 -19.375 13.125 C-20.24125 13.41375 -21.1075 13.7025 -22 14 C-18.4301466 10.13094129 -13.9559513 7.86155131 -9.4375 5.25 C-8.12362305 4.47076172 -8.12362305 4.47076172 -6.78320312 3.67578125 C-5.94595703 3.18980469 -5.10871094 2.70382813 -4.24609375 2.203125 C-3.47966553 1.75614258 -2.7132373 1.30916016 -1.92358398 0.84863281 C-1.28880127 0.56858398 -0.65401855 0.28853516 0 0 Z " fill="#2EBDA7" transform="translate(216,162)"/>
<path d="M0 0 C0.66 0.33 1.32 0.66 2 1 C1.01 2.485 1.01 2.485 0 4 C-0.66 4 -1.32 4 -2 4 C-2 4.66 -2 5.32 -2 6 C-2.99 6 -3.98 6 -5 6 C-5.226875 6.78375 -5.45375 7.5675 -5.6875 8.375 C-7 11 -7 11 -9.375 12.1875 C-10.24125 12.455625 -11.1075 12.72375 -12 13 C-13.34098912 13.6511301 -14.6758044 14.3153627 -16 15 C-11.30217584 9.06590633 -6.01350104 4.57548992 0 0 Z " fill="#18BB9D" transform="translate(263,241)"/>
<path d="M0 0 C2.27141109 0.11402064 4.54214552 0.24158505 6.8125 0.375 C8.07707031 0.44460937 9.34164062 0.51421875 10.64453125 0.5859375 C14 1 14 1 17 3 C19.30101925 3.59063596 21.60550768 4.00790946 23.94140625 4.4375 C26 5 26 5 28 7 C21.90126313 6.26409139 16.02615597 4.89274619 10.0625 3.4375 C9.09248047 3.20353516 8.12246094 2.96957031 7.12304688 2.72851562 C4.74798449 2.15522471 2.37367947 1.57898512 0 1 C0 0.67 0 0.34 0 0 Z " fill="#C6F9F3" transform="translate(62,126)"/>
<path d="M0 0 C0.33 0.99 0.66 1.98 1 3 C-1.53528736 7.38799735 -4.71349605 11.16574539 -8 15 C-8.99 14.67 -9.98 14.34 -11 14 C-10.45730469 13.32453125 -9.91460937 12.6490625 -9.35546875 11.953125 C-8.64003906 11.06109375 -7.92460937 10.1690625 -7.1875 9.25 C-6.47980469 8.36828125 -5.77210938 7.4865625 -5.04296875 6.578125 C-3.32494998 4.41007071 -1.64626024 2.22271099 0 0 Z " fill="#D5FAF8" transform="translate(183,292)"/>
<path d="M0 0 C8.68518048 0.40871438 16.69293749 2.61864208 25 5 C25 5.33 25 5.66 25 6 C19.39221491 6.35048657 15.16667848 5.93993629 9.99609375 3.734375 C6.71903432 2.52872495 3.4658433 2.30945029 0 2 C0 1.34 0 0.68 0 0 Z " fill="#2ABAA1" transform="translate(44,123)"/>
<path d="M0 0 C2.0625 0.4375 2.0625 0.4375 4 1 C-2.80386483 4.52792991 -9.72365264 7.57455088 -17 10 C-17 9.34 -17 8.68 -17 8 C-16.34 8 -15.68 8 -15 8 C-15 7.34 -15 6.68 -15 6 C-14.01 6 -13.02 6 -12 6 C-12 5.34 -12 4.68 -12 4 C-11.21753906 3.79503906 -10.43507813 3.59007812 -9.62890625 3.37890625 C-8.61699219 3.10949219 -7.60507812 2.84007812 -6.5625 2.5625 C-5.55316406 2.29566406 -4.54382813 2.02882812 -3.50390625 1.75390625 C-1.08247999 1.24021923 -1.08247999 1.24021923 0 0 Z " fill="#23B9A1" transform="translate(308,201)"/>
<path d="M0 0 C1.32 0 2.64 0 4 0 C4.33 0.99 4.66 1.98 5 3 C2.03 5.31 -0.94 7.62 -4 10 C-4.33 8.68 -4.66 7.36 -5 6 C-4.01 6 -3.02 6 -2 6 C-1.855625 5.195625 -1.71125 4.39125 -1.5625 3.5625 C-1 1 -1 1 0 0 Z " fill="#14BFA2" transform="translate(294,338)"/>
<path d="M0 0 C-2.31 0.66 -4.62 1.32 -7 2 C-7 2.66 -7 3.32 -7 4 C-9.88211302 4.96070434 -11.69850044 5.10581883 -14.6875 5.0625 C-15.89986328 5.04896484 -15.89986328 5.04896484 -17.13671875 5.03515625 C-18.05904297 5.01775391 -18.05904297 5.01775391 -19 5 C-18 3 -18 3 -14.98046875 1.89453125 C-13.10294922 1.35892578 -13.10294922 1.35892578 -11.1875 0.8125 C-9.32158203 0.26529297 -9.32158203 0.26529297 -7.41796875 -0.29296875 C-4.33098114 -0.93153419 -2.86705078 -1.13382109 0 0 Z " fill="#D1F8F5" transform="translate(347,192)"/>
<path d="M0 0 C-5.84164487 3.89442991 -11.12443069 4.49267644 -18 5 C-15.66496157 2.66496157 -13.76960812 1.96776921 -10.6875 0.8125 C-9.27017578 0.26529297 -9.27017578 0.26529297 -7.82421875 -0.29296875 C-4.7787474 -1.05538965 -2.98739868 -0.85431984 0 0 Z " fill="#26BFA7" transform="translate(264,144)"/>
<path d="M0 0 C0.66 0.33 1.32 0.66 2 1 C1.01 2.485 1.01 2.485 0 4 C-0.99 4 -1.98 4 -3 4 C-3.33 4.99 -3.66 5.98 -4 7 C-4.99 7 -5.98 7 -7 7 C-7.33 7.66 -7.66 8.32 -8 9 C-10.24656829 10.59343064 -12.5287416 11.74269309 -15 13 C-15.66 12.67 -16.32 12.34 -17 12 C-5.47835991 3.55353075 -5.47835991 3.55353075 0 0 Z " fill="#32BBA6" transform="translate(189,178)"/>
<path d="M0 0 C0.33 0 0.66 0 1 0 C2 7.625 2 7.625 2 11 C1.01 11 0.02 11 -1 11 C-1 11.99 -1 12.98 -1 14 C-1.99 14.33 -2.98 14.66 -4 15 C-3.52229477 13.06213915 -3.04278429 11.12472326 -2.5625 9.1875 C-2.29566406 8.10855469 -2.02882813 7.02960938 -1.75390625 5.91796875 C-1.23922588 3.9259157 -0.65062825 1.95188476 0 0 Z " fill="#27BFA7" transform="translate(29,167)"/>
<path d="M0 0 C0.33 0 0.66 0 1 0 C1.33 2.97 1.66 5.94 2 9 C2.66 9 3.32 9 4 9 C3.34 10.65 2.68 12.3 2 14 C1.01 14 0.02 14 -1 14 C-1.33 14.66 -1.66 15.32 -2 16 C-3.32 15.34 -4.64 14.68 -6 14 C-4.35 13.34 -2.7 12.68 -1 12 C-0.67 8.04 -0.34 4.08 0 0 Z " fill="#CAF2F0" transform="translate(236,125)"/>
<path d="M0 0 C-0.33 0.99 -0.66 1.98 -1 3 C-6.3579607 5.21803143 -12.20142893 6.47015441 -18 6 C-14.81099544 3.87399696 -12.09585431 2.97863761 -8.4375 1.875 C-7.28121094 1.52179688 -6.12492187 1.16859375 -4.93359375 0.8046875 C-2 0 -2 0 0 0 Z " fill="#2EBEA7" transform="translate(282,136)"/>
<path d="M0 0 C4.05819183 0.65503282 7.53971282 1.94559121 11.3125 3.5625 C12.38113281 4.01753906 13.44976562 4.47257813 14.55078125 4.94140625 C15.76314453 5.46541016 15.76314453 5.46541016 17 6 C13.98670841 6.90123561 11.50561677 7.08996269 8.375 6.8125 C7.59898438 6.75707031 6.82296875 6.70164063 6.0234375 6.64453125 C4 6 4 6 2.8515625 4.07421875 C2.57054687 3.38972656 2.28953125 2.70523438 2 2 C1.34 1.34 0.68 0.68 0 0 Z " fill="#E0FDFC" transform="translate(32,190)"/>
<path d="M0 0 C1.07174763 3.65188082 0.76411467 6.26432828 0 10 C-0.66 10 -1.32 10 -2 10 C-1.7525 10.7425 -1.505 11.485 -1.25 12.25 C-1.1675 13.1575 -1.085 14.065 -1 15 C-2.9375 17.3125 -2.9375 17.3125 -5 19 C-4.39297368 12.3227105 -2.22368606 6.29872004 0 0 Z " fill="#2ABDA4" transform="translate(39,137)"/>
<path d="M0 0 C3.25524265 3.02272532 5.61820737 6.25718301 8 10 C7.67 10.66 7.34 11.32 7 12 C4.46073827 10.17328621 2.0949488 8.33122122 0 6 C-0.4375 2.625 -0.4375 2.625 0 0 Z " fill="#1EBBA5" transform="translate(305,299)"/>
<path d="M0 0 C0.66 0.33 1.32 0.66 2 1 C-6.261959 11.55808656 -6.261959 11.55808656 -11 16 C-9.6020749 11.93064734 -7.66821145 9.06055399 -4.9375 5.75 C-4.22464844 4.87859375 -3.51179688 4.0071875 -2.77734375 3.109375 C-1.88187356 2.04661917 -0.98267919 0.98267919 0 0 Z " fill="#D0FCFA" transform="translate(100,256)"/>
<path d="M0 0 C0.99 0.66 1.98 1.32 3 2 C5.64632287 1.6878236 5.64632287 1.6878236 8 1 C4.97727468 4.25524265 1.74281699 6.61820737 -2 9 C-2.33 7.68 -2.66 6.36 -3 5 C-2.01 4.67 -1.02 4.34 0 4 C0 2.68 0 1.36 0 0 Z " fill="#DEFAF8" transform="translate(160,192)"/>
<path d="M0 0 C2.97 0 5.94 0 9 0 C9 0.66 9 1.32 9 2 C9.61488281 1.96519531 10.22976562 1.93039063 10.86328125 1.89453125 C11.67152344 1.86746094 12.47976562 1.84039062 13.3125 1.8125 C14.51326172 1.76029297 14.51326172 1.76029297 15.73828125 1.70703125 C18.47851584 2.06198392 19.29171079 2.89366282 21 5 C13.84404654 4.29843593 6.98144819 2.69214979 0 1 C0 0.67 0 0.34 0 0 Z " fill="#CAF9F7" transform="translate(125,141)"/>
<path d="M0 0 C0.66 0 1.32 0 2 0 C0.47940093 3.88014936 -1.86078531 5.73906562 -5.125 8.25 C-6.03507813 8.95640625 -6.94515625 9.6628125 -7.8828125 10.390625 C-8.58148438 10.92171875 -9.28015625 11.4528125 -10 12 C-10.33 11.34 -10.66 10.68 -11 10 C-10.67 9.01 -10.34 8.02 -10 7 C-9.38125 6.855625 -8.7625 6.71125 -8.125 6.5625 C-5.29228518 5.81266373 -4.70349229 4.29601135 -3 2 C-2.01 2 -1.02 2 0 2 C0 1.34 0 0.68 0 0 Z " fill="#27BAA1" transform="translate(230,245)"/>
<path d="M0 0 C0.33 0.99 0.66 1.98 1 3 C-0.14453125 5.0859375 -0.14453125 5.0859375 -1.8125 7.375 C-4.0697406 10.49546087 -5.68608356 13.37230876 -7 17 C-7.66 17 -8.32 17 -9 17 C-7.68925635 12.53817564 -5.92933989 9.00381243 -3.375 5.125 C-2.74335938 4.15820312 -2.11171875 3.19140625 -1.4609375 2.1953125 C-0.73777344 1.10863281 -0.73777344 1.10863281 0 0 Z " fill="#2FBDA7" transform="translate(225,280)"/>
<path d="M0 0 C-2.85276137 2.93200474 -5.65079784 5.64315404 -9 8 C-9.25 5.6875 -9.25 5.6875 -9 3 C-6.19926731 -0.00819437 -4.01012625 -0.33417719 0 0 Z " fill="#20BBA1" transform="translate(114,203)"/>
<path d="M0 0 C0.66 0.33 1.32 0.66 2 1 C1.071875 1.8971875 1.071875 1.8971875 0.125 2.8125 C-2.13676954 5.00811144 -2.13676954 5.00811144 -4 8 C-6.62356462 8.98515378 -9.24524123 9.42238929 -12 10 C-8.40945767 6.11024581 -4.26101118 3.10267805 0 0 Z " fill="#CFF8F5" transform="translate(296,342)"/>
<path d="M0 0 C2.76390737 2.40339772 3.04065919 3.16263678 4 7 C-0.455 9.97 -0.455 9.97 -5 13 C-5 11.68 -5 10.36 -5 9 C-2.69 8.34 -0.38 7.68 2 7 C2 6.01 2 5.02 2 4 C1.34 4 0.68 4 0 4 C0 2.68 0 1.36 0 0 Z " fill="#2DB7A3" transform="translate(317,318)"/>
<path d="M0 0 C0.33 0.66 0.66 1.32 1 2 C0.06553465 4.03144641 -0.93224776 6.03533587 -2 8 C-2.66 8 -3.32 8 -4 8 C-4.99 9.485 -4.99 9.485 -6 11 C-6.99 10.67 -7.98 10.34 -9 10 C-6.03 6.7 -3.06 3.4 0 0 Z " fill="#D3F9F7" transform="translate(197,277)"/>
<path d="M0 0 C0.33 1.65 0.66 3.3 1 5 C-0.8125 5.625 -0.8125 5.625 -3 6 C-3.99 5.34 -4.98 4.68 -6 4 C-6 4.66 -6 5.32 -6 6 C-7.32 5.67 -8.64 5.34 -10 5 C-8.71186658 4.16121545 -7.41936744 3.32913217 -6.125 2.5 C-5.40570313 2.0359375 -4.68640625 1.571875 -3.9453125 1.09375 C-2 0 -2 0 0 0 Z " fill="#DDFAF7" transform="translate(164,169)"/>
<path d="M0 0 C1 2 1 2 0.25 5 C-1 8 -1 8 -4 10 C-5.01187895 11.65948148 -6.0126546 13.32580562 -7 15 C-7.99 15.495 -7.99 15.495 -9 16 C-7.56691865 12.04093183 -5.66858051 8.71281819 -3.375 5.1875 C-2.74335938 4.21167969 -2.11171875 3.23585938 -1.4609375 2.23046875 C-0.73777344 1.12638672 -0.73777344 1.12638672 0 0 Z " fill="#C6F9F4" transform="translate(156,328)"/>
<path d="M0 0 C1.48206495 0.254496 2.96068615 0.52911762 4.4375 0.8125 C5.67306641 1.03873047 5.67306641 1.03873047 6.93359375 1.26953125 C7.95646484 1.63111328 7.95646484 1.63111328 9 2 C9.33 2.99 9.66 3.98 10 5 C12.00016466 6.20882096 12.00016466 6.20882096 14 7 C14 7.66 14 8.32 14 9 C10.40241608 7.67726488 7.36262865 6.0805802 4.1875 3.9375 C3.39730469 3.41027344 2.60710937 2.88304687 1.79296875 2.33984375 C1.20128906 1.89769531 0.60960938 1.45554687 0 1 C0 0.67 0 0.34 0 0 Z " fill="#33BEA6" transform="translate(76,324)"/>
<path d="M0 0 C2.70272533 2.87164566 3.94791837 4.30991841 4.25 8.3125 C4.1675 9.199375 4.085 10.08625 4 11 C3.01 11 2.02 11 1 11 C-0.17571451 7.32589215 -0.07366746 3.83070817 0 0 Z " fill="#14BEA5" transform="translate(313,311)"/>
<path d="M0 0 C4.52615993 3.67832017 8.39424999 7.41086363 12 12 C10.35 11.67 8.7 11.34 7 11 C6.87625 10.071875 6.87625 10.071875 6.75 9.125 C6.21868674 6.82530563 6.21868674 6.82530563 4.0625 6.0625 C2 5 2 5 0.75 2.375 C0.5025 1.59125 0.255 0.8075 0 0 Z " fill="#D5FCFA" transform="translate(257,352)"/>
<path d="M0 0 C0.66 0.33 1.32 0.66 2 1 C-1.08993314 4.35478456 -3.53194683 6.79241806 -8 8 C-8.66 7.67 -9.32 7.34 -10 7 C-6.7 4.69 -3.4 2.38 0 0 Z " fill="#D2F7F6" transform="translate(147,178)"/>
<path d="M0 0 C-0.99 0.495 -0.99 0.495 -2 1 C-1.01 1.66 -0.02 2.32 1 3 C1 3.66 1 4.32 1 5 C-0.48199902 4.55090939 -1.96055236 4.09043436 -3.4375 3.625 C-4.26121094 3.36976563 -5.08492187 3.11453125 -5.93359375 2.8515625 C-8 2 -8 2 -9 0 C-5.62182575 -0.84454356 -3.32534757 -1.10844919 0 0 Z " fill="#24BBA4" transform="translate(57,195)"/>
<path d="M0 0 C4.32596028 0.25446825 6.52002301 0.6119335 9.9375 3.375 C12 6 12 6 12 9 C9.997193 7.69161864 7.99773901 6.37857806 6 5.0625 C5.42765625 4.68931641 4.8553125 4.31613281 4.265625 3.93164062 C2.82614271 2.98055411 1.41085511 1.99305724 0 1 C0 0.67 0 0.34 0 0 Z " fill="#2EBAA3" transform="translate(112,347)"/>
<path d="M0 0 C0.66 0.33 1.32 0.66 2 1 C1.505 1.928125 1.01 2.85625 0.5 3.8125 C-1.21289852 6.86527516 -1.21289852 6.86527516 -1 10 C-2.32 9.67 -3.64 9.34 -5 9 C-4.38722388 6.03824877 -3.74627478 4.61941217 -2 2 C-1.34 2 -0.68 2 0 2 C0 1.34 0 0.68 0 0 Z " fill="#DAFBF7" transform="translate(65,307)"/>
<path d="M0 0 C-1.24546405 3.73639216 -2.63404953 4.18756513 -6 6 C-7.125 2.25 -7.125 2.25 -6 0 C-2.49056604 -1.24528302 -2.49056604 -1.24528302 0 0 Z " fill="#1BBBA1" transform="translate(208,266)"/>
<path d="M0 0 C0.66 0 1.32 0 2 0 C2 0.66 2 1.32 2 2 C2.99 2 3.98 2 5 2 C5.33 3.98 5.66 5.96 6 8 C6.66 8 7.32 8 8 8 C7.67 8.99 7.34 9.98 7 11 C4.04250209 7.53258866 1.92151848 4.13126473 0 0 Z " fill="#D0FBF7" transform="translate(287,267)"/>
<path d="M0 0 C0.99 0.33 1.98 0.66 3 1 C-0.465 3.97 -0.465 3.97 -4 7 C-4 6.01 -4 5.02 -4 4 C-4.66 4 -5.32 4 -6 4 C-6 3.34 -6 2.68 -6 2 C-3 1 -3 1 0 2 C0 1.34 0 0.68 0 0 Z " fill="#E1FEFE" transform="translate(128,224)"/>
<path d="M0 0 C1.98 0 3.96 0 6 0 C2.88983545 3.28788824 -0.01618925 5.83735988 -4 8 C-4 7.01 -4 6.02 -4 5 C-3.01 5 -2.02 5 -1 5 C-1 4.34 -1 3.68 -1 3 C-0.34 3 0.32 3 1 3 C0.67 2.01 0.34 1.02 0 0 Z " fill="#28B9A4" transform="translate(129,186)"/>
<path d="M0 0 C1.32 0.33 2.64 0.66 4 1 C0.04 4.465 0.04 4.465 -4 8 C-4.66 7.34 -5.32 6.68 -6 6 C-5.34 6 -4.68 6 -4 6 C-3.896875 5.38125 -3.79375 4.7625 -3.6875 4.125 C-3 2 -3 2 0 0 Z " fill="#27C0A7" transform="translate(215,257)"/>
<path d="M0 0 C3.01327566 1.50663783 3.61056618 4.03166411 5 7 C4.01 7.33 3.02 7.66 2 8 C0.5 6.625 0.5 6.625 -1 5 C-1 4.34 -1 3.68 -1 3 C-1.66 2.67 -2.32 2.34 -3 2 C-2.01 1.34 -1.02 0.68 0 0 Z " fill="#E6FCF9" transform="translate(262,226)"/>
<path d="M0 0 C0.66 0.33 1.32 0.66 2 1 C0 4 0 4 -3 5 C-3.474375 5.495 -3.94875 5.99 -4.4375 6.5 C-6.25193719 8.24185971 -7.55559077 8.57855013 -10 9 C-6.83047153 5.73991357 -3.60062011 2.77762123 0 0 Z " fill="#28BBA3" transform="translate(170,191)"/>
<path d="M0 0 C2.23960447 2.87949147 4.29864224 5.76742026 6 9 C5.67 9.66 5.34 10.32 5 11 C2.80003942 9.14438107 0.7468866 7.29514024 -1 5 C-0.875 2.125 -0.875 2.125 0 0 Z " fill="#34BBA5" transform="translate(215,297)"/>
<path d="M0 0 C0.33 0.99 0.66 1.98 1 3 C-0.75 3.75 -0.75 3.75 -3 4 C-5.25 2.0625 -5.25 2.0625 -7 0 C-3.98968256 -0.93423645 -3.13349732 -1.04449911 0 0 Z " fill="#1DC0A2" transform="translate(133,356)"/>
<path d="M0 0 C2.125 0.375 2.125 0.375 4 1 C3.1875 2.9375 3.1875 2.9375 2 5 C1.01 5.33 0.02 5.66 -1 6 C-1.625 4.125 -1.625 4.125 -2 2 C-1.34 1.34 -0.68 0.68 0 0 Z " fill="#18C0A4" transform="translate(118,194)"/>
<path d="M0 0 C2.10494301 0.08708038 4.20902142 0.19525693 6.3125 0.3125 C8.07013672 0.39951172 8.07013672 0.39951172 9.86328125 0.48828125 C13.0983686 1.01604768 14.08684881 1.42380724 16 4 C10.63486869 3.152874 5.3212615 2.08318169 0 1 C0 0.67 0 0.34 0 0 Z " fill="#B7F3EE" transform="translate(44,122)"/>
<path d="M0 0 C0.33 0.66 0.66 1.32 1 2 C0.22265625 3.9453125 0.22265625 3.9453125 -0.9375 6.125 C-1.31777344 6.84945313 -1.69804687 7.57390625 -2.08984375 8.3203125 C-2.39019531 8.87460937 -2.69054687 9.42890625 -3 10 C-3.99 10 -4.98 10 -6 10 C-4.34832443 6.4213696 -2.21713508 3.25179812 0 0 Z " fill="#C7F8F4" transform="translate(167,312)"/>
<path d="M0 0 C0.66 1.32 1.32 2.64 2 4 C0.03533587 5.06775224 -1.96855359 6.06553465 -4 7 C-4.66 6.67 -5.32 6.34 -6 6 C-4.02 4.02 -2.04 2.04 0 0 Z " fill="#D9FBF9" transform="translate(108,208)"/>
<path d="M0 0 C3 1 3 1 5 4 C3.35 4.66 1.7 5.32 0 6 C0 5.34 0 4.68 0 4 C-0.66 3.67 -1.32 3.34 -2 3 C-1.34 2.01 -0.68 1.02 0 0 Z " fill="#E4F7F8" transform="translate(170,185)"/>
<path d="M0 0 C-4.455 2.97 -4.455 2.97 -9 6 C-9.33 5.01 -9.66 4.02 -10 3 C-9.01 2.67 -8.02 2.34 -7 2 C-6.67 1.34 -6.34 0.68 -6 0 C-2.49056604 -1.24528302 -2.49056604 -1.24528302 0 0 Z " fill="#2AB9A6" transform="translate(147,179)"/>
<path d="M0 0 C1.98 0 3.96 0 6 0 C2.58983503 2.86453858 -0.90694544 4.34703566 -5 6 C-4.67 5.01 -4.34 4.02 -4 3 C-1.9375 2.3125 -1.9375 2.3125 0 2 C0 1.34 0 0.68 0 0 Z " fill="#CAF9F7" transform="translate(229,153)"/>
<path d="M0 0 C-4.455 2.97 -4.455 2.97 -9 6 C-9 5.01 -9 4.02 -9 3 C-8.01 3 -7.02 3 -6 3 C-6 2.01 -6 1.02 -6 0 C-2.25 -1.125 -2.25 -1.125 0 0 Z " fill="#2AB9A1" transform="translate(310,333)"/>
<path d="M0 0 C0.66 0.33 1.32 0.66 2 1 C-0.475 5.455 -0.475 5.455 -3 10 C-3.33 10 -3.66 10 -4 10 C-3.38461538 3.47692308 -3.38461538 3.47692308 -1.4375 1.0625 C-0.7259375 0.5365625 -0.7259375 0.5365625 0 0 Z " fill="#CEF7F3" transform="translate(73,294)"/>
<path d="M0 0 C0.33 0.99 0.66 1.98 1 3 C-0.32 4.32 -1.64 5.64 -3 7 C-3.99 6.67 -4.98 6.34 -6 6 C-4.02 4.02 -2.04 2.04 0 0 Z " fill="#CAF7F4" transform="translate(204,270)"/>
<path d="M0 0 C0.66 0.33 1.32 0.66 2 1 C0.875 3.4375 0.875 3.4375 -1 6 C-4.1875 6.8125 -4.1875 6.8125 -7 7 C-4.66666667 4.66666667 -2.33333333 2.33333333 0 0 Z " fill="#CFF9F5" transform="translate(240,240)"/>
<path d="M0 0 C1.32 0.33 2.64 0.66 4 1 C2.87926138 1.83905565 1.75325453 2.67107831 0.625 3.5 C-0.00148437 3.9640625 -0.62796875 4.428125 -1.2734375 4.90625 C-3 6 -3 6 -5 6 C-5 5.01 -5 4.02 -5 3 C-3.68 3 -2.36 3 -1 3 C-0.67 2.01 -0.34 1.02 0 0 Z " fill="#D5FAF9" transform="translate(188,176)"/>
<path d="M0 0 C-5.078125 3.3203125 -5.078125 3.3203125 -7 4 C-9.234375 3.1171875 -9.234375 3.1171875 -11 2 C-9.54494642 1.47007308 -8.08581873 0.9513211 -6.625 0.4375 C-5.81289062 0.14746094 -5.00078125 -0.14257812 -4.1640625 -0.44140625 C-2 -1 -2 -1 0 0 Z " fill="#E9FDFB" transform="translate(179,164)"/>
<path d="M0 0 C0.103125 0.639375 0.20625 1.27875 0.3125 1.9375 C0.539375 2.618125 0.76625 3.29875 1 4 C1.99 4.33 2.98 4.66 4 5 C4.33 6.65 4.66 8.3 5 10 C2.35247996 7.42215154 0.05567935 5.08351902 -2 2 C-1.34 2 -0.68 2 0 2 C0 1.34 0 0.68 0 0 Z " fill="#30C1AA" transform="translate(253,342)"/>
<path d="M0 0 C0.66 0.33 1.32 0.66 2 1 C-1.465 3.97 -1.465 3.97 -5 7 C-5 5.68 -5 4.36 -5 3 C-4.34 3 -3.68 3 -3 3 C-3 2.34 -3 1.68 -3 1 C-2.01 0.67 -1.02 0.34 0 0 Z " fill="#1AB79D" transform="translate(200,272)"/>
<path d="M0 0 C2.63664741 2.63664741 4.255224 4.75970171 6 8 C6 8.66 6 9.32 6 10 C5.01 10 4.02 10 3 10 C2.01 6.7 1.02 3.4 0 0 Z " fill="#30BDA7" transform="translate(282,260)"/>
<path d="M0 0 C0.66 0.33 1.32 0.66 2 1 C1.4375 2.9375 1.4375 2.9375 0 5 C-3.625 5.75 -3.625 5.75 -7 6 C-4.83312509 3.72478134 -2.54379491 1.84205838 0 0 Z " fill="#D5FAF7" transform="translate(249,234)"/>
<path d="M0 0 C0.66 0.33 1.32 0.66 2 1 C1.6875 2.9375 1.6875 2.9375 1 5 C-2 6 -2 6 -4.1875 5.0625 C-4.785625 4.711875 -5.38375 4.36125 -6 4 C-6 3.67 -6 3.34 -6 3 C-4.35 3 -2.7 3 -1 3 C-0.67 2.01 -0.34 1.02 0 0 Z " fill="#ECFAFA" transform="translate(270,361)"/>
<path d="M0 0 C0.99 0.33 1.98 0.66 3 1 C0.525 4.465 0.525 4.465 -2 8 C-2.33 6.68 -2.66 5.36 -3 4 C-2.34 4 -1.68 4 -1 4 C-0.67 2.68 -0.34 1.36 0 0 Z " fill="#D3FCFA" transform="translate(228,272)"/>
<path d="M0 0 C0 3.10551666 -0.5393715 4.35261084 -2 7 C-3.32 6.67 -4.64 6.34 -6 6 C-4.02 4.02 -2.04 2.04 0 0 Z " fill="#21B89D" transform="translate(118,238)"/>
<path d="M0 0 C2.97 0.99 5.94 1.98 9 3 C9 3.66 9 4.32 9 5 C5.65626525 4.44271087 2.96687001 3.64826111 0 2 C0 1.34 0 0.68 0 0 Z " fill="#D1FDFB" transform="translate(91,214)"/>
<path d="M0 0 C6.75 0.75 6.75 0.75 9 3 C5.98968256 3.93423645 5.13349732 4.04449911 2 3 C2 2.34 2 1.68 2 1 C1.34 0.67 0.68 0.34 0 0 Z " fill="#E3FEFB" transform="translate(73,208)"/>
<path d="M0 0 C-0.33 0.99 -0.66 1.98 -1 3 C-5.455 3.495 -5.455 3.495 -10 4 C-7.25346796 1.25346796 -3.91404908 0 0 0 Z " fill="#CFF8F6" transform="translate(224,142)"/>
<path d="M0 0 C2.64752004 2.57784846 4.94432065 4.91648098 7 8 C5.68 7.34 4.36 6.68 3 6 C3 5.34 3 4.68 3 4 C2.01 4 1.02 4 0 4 C0 2.68 0 1.36 0 0 Z " fill="#C1F6F1" transform="translate(237,328)"/>
<path d="M0 0 C0.99 0.33 1.98 0.66 3 1 C3 1.66 3 2.32 3 3 C3.99 2.67 4.98 2.34 6 2 C5.67 3.65 5.34 5.3 5 7 C2.47411298 4.63707344 1.11179163 3.33537489 0 0 Z " fill="#D4FBF8" transform="translate(314,312)"/>
<path d="M0 0 C1.32 0 2.64 0 4 0 C2.63016497 3.16115776 2.0109362 3.9927092 -1 6 C-0.67 4.02 -0.34 2.04 0 0 Z " fill="#33BCA6" transform="translate(188,282)"/>
<path d="M0 0 C0.33 1.32 0.66 2.64 1 4 C0.34 4 -0.32 4 -1 4 C-1.33 4.99 -1.66 5.98 -2 7 C-2.99 6.67 -3.98 6.34 -5 6 C-3.35 4.02 -1.7 2.04 0 0 Z " fill="#21BB9F" transform="translate(102,256)"/>
<path d="M0 0 C0.6875 1.8125 0.6875 1.8125 1 4 C-0.4375 5.75 -0.4375 5.75 -2 7 C-2.66 6.67 -3.32 6.34 -4 6 C-1.125 1.125 -1.125 1.125 0 0 Z " fill="#0FBB9C" transform="translate(246,256)"/>
<path d="M0 0 C0.66 0.33 1.32 0.66 2 1 C1.01 2.485 1.01 2.485 0 4 C-0.66 4 -1.32 4 -2 4 C-2 4.66 -2 5.32 -2 6 C-3.32 5.67 -4.64 5.34 -6 5 C-4.02 3.35 -2.04 1.7 0 0 Z " fill="#29B7A0" transform="translate(263,241)"/>
<path d="M0 0 C0.99 0.33 1.98 0.66 3 1 C0.69 2.65 -1.62 4.3 -4 6 C-4.33 5.01 -4.66 4.02 -5 3 C-4.01 3 -3.02 3 -2 3 C-2 2.34 -2 1.68 -2 1 C-1.34 0.67 -0.68 0.34 0 0 Z " fill="#20BA9F" transform="translate(237,240)"/>
<path d="M0 0 C0.66 0.33 1.32 0.66 2 1 C1.01 2.485 1.01 2.485 0 4 C-0.99 4 -1.98 4 -3 4 C-3.33 4.99 -3.66 5.98 -4 7 C-4.33 6.01 -4.66 5.02 -5 4 C-3.35 2.68 -1.7 1.36 0 0 Z " fill="#1BBCA3" transform="translate(189,178)"/>
</svg>
